<svg id="emoji" viewBox="0 0 72 72" xmlns="http://www.w3.org/2000/svg">
  <g id="color">
    <path fill="#d0cfce" d="M64.9039,50.73l-8.8113,2.38c-4.6545,1.25-9.4553,1.89-14.2659,1.89H7.7915c-1.4441,0-2.6248-1.21-2.6248-2.69v-2.9c.0488,1.44,1.1612,2.59,2.5078,2.59h32.4837c4.5959,0,9.1723-.64,13.6219-1.89l8.4112-2.38c1.9906-.43,2.8493-.76,1.7369-3.46l-.7708-2.49c-.0781-.28-.1854-.55-.3123-.81,1.0539.6,1.9321,1.49,2.5371,2.58.2146.39.4.8.5367,1.23l.8099,2.49c.4781,1.48-.3513,3.07-1.8248,3.46Z"/>
    <path fill="#fff" d="M62.1912,47.73l-8.4112,2.38c-4.4496,1.25-9.026,1.89-13.6219,1.89H7.6745c-1.3466,0-2.459-1.15-2.5078-2.59.0098-.99.0878-2,.2439-2.98.4196.93,1.327,1.57,2.3809,1.57h34.0352c4.8106,0,9.6114-.64,14.2659-1.89l.5757-.16-4.1764-5.89c1.9125.34,3.8836.38,5.8351.13l.4001-.05c.283-.04.5659-.05.8587-.05.4293,0,.8587.04,1.288.13.7025.14,1.3661.4,1.971.75.1269.26.2342.53.3123.81l.7708,2.49c1.1124,2.7.2537,3.03-1.7369,3.46Z"/>
    <path fill="#92d3f5" d="M56.6683,45.95l-.5757.16c-4.6545,1.25-9.4553,1.89-14.2659,1.89H7.7915c-1.0539,0-1.9613-.64-2.3809-1.57.0878-.64.2049-1.27.361-1.9l.927-3.83c.283-1.1201.7708-2.1801,1.4441-3.1,1.2295-1.68,1.8247-3.75,1.6784-5.84l-.283-4.09-.2146-3.03c-.0488-.66.0878-1.3.361-1.85.5367-1.11,1.6393-1.9,2.9371-1.97l13.8463-.71c1.2977-.07,2.5272.61,3.181,1.77l.5367.92c3.4152,6.01,8.4112,10.93,14.4122,14.18l1.7759.96c1.9223,1.05,3.991,1.76,6.1182,2.12l4.1764,5.89Z"/>
  </g>
  <g id="line">
    <path fill="none" stroke="#000" stroke-linecap="round" stroke-linejoin="round" stroke-width="2" d="M65.382,43.55c.2146.39.4.8.5367,1.23l.8099,2.49c.4781,1.48-.3513,3.07-1.8248,3.46l-8.8113,2.38c-4.6545,1.25-9.4553,1.89-14.2659,1.89H7.7915c-1.4441,0-2.6248-1.21-2.6248-2.69v-2.76c0-1.04.0781-2.09.2439-3.12.4196.93,1.327,1.57,2.3809,1.57h34.0352c4.8106,0,9.6114-.64,14.2659-1.89l.5757-.16"/>
    <path fill="none" stroke="#000" stroke-linecap="round" stroke-linejoin="round" stroke-width="2" d="M61.7129,44.5902l-5.0445,1.3598-4.1764-5.89c1.9125.34,3.8836.38,5.8351.13l.4001-.05c.283-.04.5659-.05.8587-.05.4293,0,.8587.04,1.288.13,1.9223.39,3.5616,1.62,4.5081,3.33"/>
    <path fill="none" stroke="#000" stroke-linecap="round" stroke-linejoin="round" stroke-width="2" d="M56.6683,45.95l-.5757.16c-4.6545,1.25-9.4553,1.89-14.2659,1.89H7.7915c-1.0539,0-1.9613-.64-2.3809-1.57.0878-.64.2049-1.27.361-1.9l.927-3.83c.283-1.1201.7708-2.1801,1.4441-3.1,1.2295-1.68,1.8247-3.75,1.6784-5.84l-.283-4.09-.2146-3.03c-.0488-.66.0878-1.3.361-1.85.5367-1.11,1.6393-1.9,2.9371-1.97l13.8463-.71c1.2977-.07,2.5272.61,3.181,1.77l.5367.92c3.4152,6.01,8.4112,10.93,14.4122,14.18l1.7759.96c1.9223,1.05,3.991,1.76,6.1182,2.12l4.1764,5.89Z"/>
    <path d="M26.4805,23.9088c0,1.0175-.8123,1.85-1.8052,1.85s-1.8052-.8325-1.8052-1.85.8123-1.85,1.8052-1.85,1.8052.8325,1.8052,1.85h0Z"/>
    <path d="M29.4078,28.9088c0,1.0175-.8123,1.85-1.8052,1.85s-1.8052-.8325-1.8052-1.85.8123-1.85,1.8052-1.85,1.8052.8325,1.8052,1.85h0Z"/>
    <path d="M33.3109,33.9088c0,1.0175-.8123,1.85-1.8052,1.85s-1.8052-.8325-1.8052-1.85.8123-1.85,1.8052-1.85,1.8052.8325,1.8052,1.85h0Z"/>
    <path d="M37.2141,37.9088c0,1.0175-.8123,1.85-1.8052,1.85s-1.8052-.8325-1.8052-1.85.8123-1.85,1.8052-1.85,1.8052.8325,1.8052,1.85h0Z"/>
    <path d="M42.0929,40.9088c0,1.0175-.8123,1.85-1.8052,1.85s-1.8052-.8325-1.8052-1.85.8123-1.85,1.8052-1.85,1.8052.8325,1.8052,1.85h0Z"/>
    <path d="M47.9476,42.9088c0,1.0175-.8123,1.85-1.8052,1.85s-1.8052-.8325-1.8052-1.85.8123-1.85,1.8052-1.85,1.8052.8325,1.8052,1.85h0Z"/>
    <line x1="48.9254" x2="48.101" y1="54.5356" y2="51" fill="none" stroke="#000" stroke-linecap="round" stroke-linejoin="round" stroke-width="2"/>
  </g>
</svg>
