<svg id="emoji" viewBox="0 0 72 72" xmlns="http://www.w3.org/2000/svg">
  <g id="color">
    <path fill="#9b9b9a" d="M49.15,12h-26.3c-1.77,0-3.2,1.4299-3.2,3.1899v41.41c0,1.76,1.43,3.1901,3.2,3.1901h26.3c1.77,0,3.2-1.4301,3.2-3.1901V15.1899c0-1.76-1.43-3.1899-3.2-3.1899ZM26.6,54.49c-1.16,0-2.09-.9399-2.09-2.0901,0-1.1599.93-2.0898,2.09-2.0898,1.15,0,2.09.9299,2.09,2.0898,0,1.1501-.94,2.0901-2.09,2.0901ZM26.6,45.08c-1.16,0-2.09-.9301-2.09-2.09,0-1.15.93-2.0801,2.09-2.0801,1.15,0,2.09.9301,2.09,2.0801,0,1.1599-.94,2.09-2.09,2.09ZM26.6,35.6799c-1.16,0-2.09-.9299-2.09-2.09,0-1.15.93-2.09,2.09-2.09,1.15,0,2.09.9399,2.09,2.09,0,1.16-.94,2.09-2.09,2.09ZM36,54.49c-1.15,0-2.09-.9399-2.09-2.0901,0-1.1599.94-2.0898,2.09-2.0898s2.09.9299,2.09,2.0898c0,1.1501-.94,2.0901-2.09,2.0901ZM36,45.08c-1.15,0-2.09-.9301-2.09-2.09,0-1.15.94-2.0801,2.09-2.0801s2.09.9301,2.09,2.0801c0,1.1599-.94,2.09-2.09,2.09ZM36,35.6799c-1.15,0-2.09-.9299-2.09-2.09,0-1.15.94-2.09,2.09-2.09s2.09.9399,2.09,2.09c0,1.16-.94,2.09-2.09,2.09ZM45.4,54.49c-1.15,0-2.09-.9399-2.09-2.0901,0-1.1599.94-2.0898,2.09-2.0898,1.16,0,2.09.9299,2.09,2.0898,0,1.1501-.93,2.0901-2.09,2.0901ZM45.4,45.08c-1.15,0-2.09-.9301-2.09-2.09,0-1.15.94-2.0801,2.09-2.0801,1.16,0,2.09.9301,2.09,2.0801,0,1.1599-.93,2.09-2.09,2.09ZM45.4,35.6799c-1.15,0-2.09-.9299-2.09-2.09,0-1.15.94-2.09,2.09-2.09,1.16,0,2.09.9399,2.09,2.09,0,1.16-.93,2.09-2.09,2.09ZM48.32,26.2h-24.64v-9.72h24.64v9.72Z"/>
    <g>
      <path fill="#9b9b9a" d="M27.0785,47.1808c-2.0374,0-3.6953-1.6505-3.6953-3.6789,0-2.0235,1.6579-3.6691,3.6953-3.6691s3.6963,1.6457,3.6963,3.6691c0,2.0283-1.6579,3.6789-3.6963,3.6789Z"/>
      <path fill="#9b9b9a" d="M27.0785,37.8074c-2.0374,0-3.6953-1.6505-3.6953-3.6789s1.6579-3.6789,3.6953-3.6789,3.6963,1.6505,3.6963,3.6789-1.6579,3.6789-3.6963,3.6789Z"/>
      <path fill="#9b9b9a" d="M27.0785,56.5639c-2.0374,0-3.6953-1.6505-3.6953-3.6789s1.6579-3.6789,3.6953-3.6789,3.6963,1.6505,3.6963,3.6789-1.6579,3.6789-3.6963,3.6789Z"/>
      <path fill="#9b9b9a" d="M45.9093,47.1808c-2.0384,0-3.6963-1.6505-3.6963-3.6789,0-2.0235,1.6579-3.6691,3.6963-3.6691s3.6953,1.6457,3.6953,3.6691c0,2.0283-1.6579,3.6789-3.6953,3.6789Z"/>
      <path fill="#9b9b9a" d="M45.9093,37.8074c-2.0384,0-3.6963-1.6505-3.6963-3.6789s1.6579-3.6789,3.6963-3.6789,3.6953,1.6505,3.6953,3.6789-1.6579,3.6789-3.6953,3.6789Z"/>
      <path fill="#9b9b9a" d="M45.9093,56.5639c-2.0384,0-3.6963-1.6505-3.6963-3.6789s1.6579-3.6789,3.6963-3.6789,3.6953,1.6505,3.6953,3.6789-1.6579,3.6789-3.6953,3.6789Z"/>
      <ellipse cx="36.4939" cy="34.1285" rx="3.6953" ry="3.6789" fill="#9b9b9a"/>
      <path fill="#9b9b9a" d="M36.4939,47.1808c-2.0374,0-3.6953-1.6505-3.6953-3.6789,0-2.0235,1.6579-3.6691,3.6953-3.6691s3.6953,1.6457,3.6953,3.6691c0,2.0283-1.6579,3.6789-3.6953,3.6789Z"/>
      <ellipse cx="36.4939" cy="52.8851" rx="3.6953" ry="3.6789" fill="#9b9b9a"/>
    </g>
    <path fill="#d0cfce" d="M45.4,35.6799c1.16,0,2.09-.9299,2.09-2.09,0-1.15-.93-2.09-2.09-2.09-1.15,0-2.09.9399-2.09,2.09,0,1.16.94,2.09,2.09,2.09ZM45.4,40.9099c-1.15,0-2.09.9301-2.09,2.0801,0,1.1599.94,2.09,2.09,2.09,1.16,0,2.09-.9301,2.09-2.09,0-1.15-.93-2.0801-2.09-2.0801ZM45.4,50.3101c-1.15,0-2.09.9299-2.09,2.0898,0,1.1501.94,2.0901,2.09,2.0901,1.16,0,2.09-.9399,2.09-2.0901,0-1.1599-.93-2.0898-2.09-2.0898ZM36,31.5c-1.15,0-2.09.9399-2.09,2.09,0,1.16.94,2.09,2.09,2.09s2.09-.9299,2.09-2.09c0-1.15-.94-2.09-2.09-2.09ZM36,40.9099c-1.15,0-2.09.9301-2.09,2.0801,0,1.1599.94,2.09,2.09,2.09s2.09-.9301,2.09-2.09c0-1.15-.94-2.0801-2.09-2.0801ZM36,50.3101c-1.15,0-2.09.9299-2.09,2.0898,0,1.1501.94,2.0901,2.09,2.0901s2.09-.9399,2.09-2.0901c0-1.1599-.94-2.0898-2.09-2.0898ZM26.6,40.9099c-1.16,0-2.09.9301-2.09,2.0801,0,1.1599.93,2.09,2.09,2.09,1.15,0,2.09-.9301,2.09-2.09,0-1.15-.94-2.0801-2.09-2.0801ZM26.6,50.3101c-1.16,0-2.09.9299-2.09,2.0898,0,1.1501.93,2.0901,2.09,2.0901,1.15,0,2.09-.9399,2.09-2.0901,0-1.1599-.94-2.0898-2.09-2.0898Z"/>
    <rect x="22.699" y="16.48" width="25.621" height="9.72" fill="#92d3f5"/>
    <path fill="#d0cfce" d="M28.69,42.99c0,1.1599-.94,2.09-2.09,2.09-1.16,0-2.09-.9301-2.09-2.09,0-1.15.93-2.0801,2.09-2.0801,1.15,0,2.09.9301,2.09,2.0801Z"/>
    <path fill="#d0cfce" d="M28.69,33.59c0,1.16-.94,2.09-2.09,2.09-1.16,0-2.09-.9299-2.09-2.09,0-1.15.93-2.09,2.09-2.09,1.15,0,2.09.9399,2.09,2.09Z"/>
    <path fill="#d0cfce" d="M28.69,52.3999c0,1.1501-.94,2.0901-2.09,2.0901-1.16,0-2.09-.9399-2.09-2.0901,0-1.1599.93-2.0898,2.09-2.0898,1.15,0,2.09.9299,2.09,2.0898Z"/>
    <path fill="#d0cfce" d="M38.09,42.99c0,1.1599-.94,2.09-2.09,2.09s-2.09-.9301-2.09-2.09c0-1.15.94-2.0801,2.09-2.0801s2.09.9301,2.09,2.0801Z"/>
    <path fill="#e27022" d="M47.49,42.99c0,1.1599-.93,2.09-2.09,2.09-1.15,0-2.09-.9301-2.09-2.09,0-1.15.94-2.0801,2.09-2.0801,1.16,0,2.09.9301,2.09,2.0801Z"/>
    <path fill="#e27022" d="M47.49,33.59c0,1.16-.93,2.09-2.09,2.09-1.15,0-2.09-.9299-2.09-2.09,0-1.15.94-2.09,2.09-2.09,1.16,0,2.09.9399,2.09,2.09Z"/>
    <path fill="#e27022" d="M47.49,52.3999c0,1.1501-.93,2.0901-2.09,2.0901-1.15,0-2.09-.9399-2.09-2.0901,0-1.1599.94-2.0898,2.09-2.0898,1.16,0,2.09.9299,2.09,2.0898Z"/>
    <circle cx="36" cy="33.59" r="2.09" fill="#d0cfce"/>
    <path fill="#d0cfce" d="M38.09,42.99c0,1.1599-.94,2.09-2.09,2.09s-2.09-.9301-2.09-2.09c0-1.15.94-2.0801,2.09-2.0801s2.09.9301,2.09,2.0801Z"/>
    <path fill="#d0cfce" d="M38.09,52.3999c0,1.1501-.94,2.0901-2.09,2.0901s-2.09-.9399-2.09-2.0901c0-1.1599.94-2.0898,2.09-2.0898s2.09.9299,2.09,2.0898Z"/>
    <g>
      <g>
        <polygon fill="#61b2e4" points="43.3879 23.6723 43.1599 23.4496 43.1583 21.7494 43.3876 21.5156 43.6089 21.7377 43.6095 23.4473 43.3879 23.6723"/>
        <polygon fill="#61b2e4" points="45.3583 23.9296 43.6458 23.9303 43.4197 23.7128 43.6292 23.487 45.3491 23.4851 45.576 23.705 45.3583 23.9296"/>
        <polygon fill="#61b2e4" points="45.3562 21.7067 43.6466 21.7079 43.4188 21.4827 43.6455 21.261 45.3496 21.2608 45.5742 21.4807 45.3562 21.7067"/>
      </g>
      <g>
        <polygon fill="#61b2e4" points="45.609 21.4511 45.3844 21.2257 45.3846 19.5135 45.6124 19.2947 45.8339 19.5149 45.8341 21.2243 45.609 21.4511"/>
        <polygon fill="#61b2e4" points="45.3581 19.4818 43.6455 19.4827 43.4159 19.2581 43.6438 19.0381 45.3503 19.0383 45.5754 19.2584 45.3581 19.4818"/>
      </g>
    </g>
    <g>
      <polygon fill="#61b2e4" points="41.8683 23.6749 41.6483 23.4527 41.6466 21.7494 41.8663 21.5171 42.0921 21.7363 42.0935 23.4525 41.8683 23.6749"/>
      <polygon fill="#61b2e4" points="41.6265 21.7052 39.909 21.7091 39.6794 21.4894 39.9017 21.2619 41.6024 21.2595 41.8334 21.4778 41.6265 21.7052"/>
      <polygon fill="#61b2e4" points="39.643 21.4508 39.4226 21.2294 39.4206 19.5274 39.6428 19.2968 39.8678 19.5139 39.8688 21.2276 39.643 21.4508"/>
      <polygon fill="#61b2e4" points="41.8636 21.4494 41.6475 21.232 41.6459 19.528 41.8683 19.2958 42.0928 19.5131 42.093 21.2256 41.8636 21.4494"/>
    </g>
  </g>
  <g id="line">
    <rect x="19.6511" y="12" rx="3.1941" ry="3.1941" width="32.6978" height="47.7915" fill="none" stroke="#000" stroke-linecap="round" stroke-linejoin="round" stroke-width="2"/>
    <polyline fill="none" stroke="#000" stroke-linecap="round" stroke-linejoin="round" stroke-width="2" points="23.6823 20.3701 23.6823 16.4792 48.3177 16.4792 48.3177 26.1979 23.6823 26.1979 23.6823 24.1732"/>
    <circle cx="26.5979" cy="42.9947" r="2.35" fill="none" stroke="#000" stroke-linecap="round" stroke-linejoin="round" stroke-width="2"/>
    <circle cx="26.5979" cy="33.5926" r="2.35" fill="none" stroke="#000" stroke-linecap="round" stroke-linejoin="round" stroke-width="2"/>
    <circle cx="26.5979" cy="52.3968" r="2.35" fill="none" stroke="#000" stroke-linecap="round" stroke-linejoin="round" stroke-width="2"/>
    <circle cx="36" cy="42.9947" r="2.0894" fill="none" stroke="#000" stroke-linecap="round" stroke-linejoin="round" stroke-width="2"/>
    <circle cx="45.4021" cy="42.9947" r="2.35" fill="none" stroke="#000" stroke-linecap="round" stroke-linejoin="round" stroke-width="2"/>
    <circle cx="45.4021" cy="33.5926" r="2.35" fill="none" stroke="#000" stroke-linecap="round" stroke-linejoin="round" stroke-width="2"/>
    <circle cx="45.4021" cy="52.3968" r="2.35" fill="none" stroke="#000" stroke-linecap="round" stroke-linejoin="round" stroke-width="2"/>
    <circle cx="36" cy="33.5926" r="2.35" fill="none" stroke="#000" stroke-linecap="round" stroke-linejoin="round" stroke-width="2"/>
    <circle cx="36" cy="42.9947" r="2.35" fill="none" stroke="#000" stroke-linecap="round" stroke-linejoin="round" stroke-width="2"/>
    <circle cx="36" cy="52.3968" r="2.35" fill="none" stroke="#000" stroke-linecap="round" stroke-linejoin="round" stroke-width="2"/>
  </g>
</svg>
