<svg id="emoji" viewBox="0 0 72 72" xmlns="http://www.w3.org/2000/svg">
  <g id="line">
    <g id="line-2">
      <path fill="none" stroke="#000" stroke-linecap="round" stroke-linejoin="round" stroke-width="1.8078" d="M55.9088,32.57l-.0631,5.43c0,4.05-.9468,9.27-5.6447,11.32-1.1632.5-2.5428.82-4.1929.87-1.4247.06-3.0478-.08-4.9053-.46-2.2182-.46-3.9946-2.49-4.5356-5.16l-.7033-3.03c-.1443-.76-.5681-1.4-1.1362-1.75-.7935-.44-1.7223-.27-2.3896.42-.2795.32-.4779.7401-.5681,1.19l-.7394,3.17c-.532,2.67-2.3174,4.7-4.5356,5.16-1.8395.37-3.4536.51-4.8693.46-1.4517-.04-2.6961-.29-3.7601-.68-5.1037-1.91-6.1136-7.34-6.1136-11.51l-.0541-5.43c-.027-1.4.6222-2.7,1.6501-3.32,1.2534-.75,3.1109-1.48,5.3832-2.1,4.1208-1.12,9.5581-1.87,15.0676-1.72,5.7078-.16,11.3526.66,15.5185,1.85,2.0649.59,3.7691,1.27,4.9323,1.97,1.028.62,1.6772,1.92,1.6592,3.32Z"/>
      <polyline id="Goggles_Line_2" fill="none" stroke="#000" stroke-linecap="round" stroke-linejoin="round" stroke-width="1.8078" points="12.176 30.3407 8.6341 33.1217 8.9454 41.6087 12.6458 44.2667"/>
      <polyline id="Goggles_Line_3" fill="none" stroke="#000" stroke-linecap="round" stroke-linejoin="round" stroke-width="1.8078" points="55.4 30.3407 58.9419 33.1217 58.6306 41.6087 54.9302 44.2667"/>
    </g>
    <path fill="none" stroke="#000" stroke-linecap="round" stroke-linejoin="round" stroke-width="1.8078" d="M49.3173,27.28c-4.1659-1.19-9.8106-2.01-15.5185-1.85-5.5094-.15-10.9468.6-15.0676,1.72,3.4445-4.95,8.99-8.15,15.2479-8.15,6.312,0,11.9026,3.26,15.3381,8.28Z"/>
    <path fill="none" stroke="#000" stroke-linecap="round" stroke-linejoin="round" stroke-width="1.8078" d="M46.008,50.19l-1.7493,1.51c-.6312.55-1.3796.95-2.1732,1.04-.6582.07-1.3345.03-1.9927-.11l-1.578-.35c-.8025-.18-1.6322.03-2.2814.57l-.0631.05c-1.3976,1.17-3.3183,1.17-4.7069,0l-.0631-.05c-.6583-.54-1.4878-.75-2.2814-.57l-1.578.35c-.523.11-1.046.16-1.569.14-.9558-.04-1.8756-.44-2.624-1.09l-1.7223-1.49c1.4157.05,3.0297-.09,4.8693-.46,2.2182-.46,4.0036-2.49,4.5356-5.16l.7394-3.17c.0902-.45.2886-.87.5681-1.19.6673-.69,1.596-.86,2.3896-.42.5681.35.9919.99,1.1362,1.75l.7033,3.03c.541,2.67,2.3174,4.7,4.5356,5.16,1.8575.38,3.4806.52,4.9053.46Z"/>
    <path fill="none" stroke="#000" stroke-linecap="round" stroke-linejoin="round" stroke-width="1.5539" d="M54.8683,6.527l6.0155,15.3121c1.7385,4.4157,1.8446,9.3211.302,13.8103l-6.3501,18.5198c-.3591,1.0611-1.1019,1.9507-2.0732,2.5058l-7.7132,4.4157c-.6938.3918-1.4855.604-2.2854.604h-1.5018"/>
    <path fill="none" stroke="#000" stroke-linecap="round" stroke-linejoin="round" stroke-width="1.5539" d="M58.6718,5.0415l6.0073,15.3039c2.0895,5.3135,2.2201,11.2229.3673,16.6262l-6.3501,18.5198c-.6856,1.9997-2.0732,3.6811-3.9096,4.734l-7.7132,4.4075c-1.3141.7428-2.7996,1.1427-4.3096,1.1427h-1.5018"/>
    <line x1="58.7028" x2="62.4835" y1="16.2851" y2="14.7625" fill="none" stroke="#000" stroke-linecap="round" stroke-linejoin="round" stroke-width="1.5539"/>
    <path fill="none" stroke="#000" stroke-linecap="round" stroke-linejoin="round" stroke-width="1.5171" d="M40.6121,59.6541v5.6895c0,.9148-.7068,1.6564-1.5788,1.6564h-10.068c-.8719,0-1.5788-.7416-1.5788-1.6564v-5.6895h13.2256Z"/>
  </g>
</svg>
