<svg id="emoji" viewBox="0 0 72 72" xmlns="http://www.w3.org/2000/svg">
  <g id="grid">
    <path fill="#b3b3b3" d="M68,3.8999v64H4V3.8999h64M72-.1001H0v72h72V-.1001h0Z"/>
    <rect x="11" y="10.8582" rx="1.923" ry="1.923" width="50" height="50" fill="none" stroke="#00a5ff" stroke-miterlimit="10" stroke-width="0.1"/>
    <rect x="16" y="3.8999" rx="2.2537" ry="2.2537" width="40" height="64" fill="none" stroke="#00a5ff" stroke-miterlimit="10" stroke-width="0.1"/>
    <rect x="16" y="3.8999" rx="2.2537" ry="2.2537" width="40" height="64" transform="translate(71.8999 -.1001) rotate(90)" fill="none" stroke="#00a5ff" stroke-miterlimit="10" stroke-width="0.1"/>
    <circle cx="36" cy="35.8999" r="29" fill="none" stroke="#00a5ff" stroke-miterlimit="10" stroke-width="0.1"/>
  </g>
  <g id="color">
    <polygon fill="#186648" points="30.83 45.7385 27.1 49.2757 27.1 52.51 17.1 49.2757 17.1 45.0678 30.53 31.1136 30.83 45.7385"/>
    <polygon fill="#186648" points="33.22 53.4099 33.22 58.4099 28.22 62.86 23.21 60.64 23.21 57.3 27.1 53.84 27.1 53.97 32.11 53.4099 33.22 53.4099"/>
    <polygon fill="#186648" points="48.79 57.3 48.79 60.64 43.78 62.86 38.78 58.4099 38.78 53.4099 39.89 53.4099 44.9 53.97 44.9 53.84 48.79 57.3"/>
    <polygon fill="#186648" points="54.9 45.0678 54.9 49.2757 44.9 52.51 44.9 49.2757 41.17 45.7385 41.47 31.1136 54.9 45.0678"/>
    <path fill="#5c9e31" d="M41.32,28.6599l-2.09-2.51c-.29-.3499-.46-.7899-.49-1.24l-.31-5.96c-.13-2.58-.7-5.1299-1.66-7.54l-.47-1.1699c-.11-.27-.49-.27-.6,0l-.47,1.1699c-.96,2.4102-1.53,4.9601-1.66,7.54l-.31,5.96c-.03.4501-.2.8901-.49,1.24l-2.09,2.51c-.16.1901-.23.42-.23.6602l.08,3.4099.3,13.52.72-.62.56,7.7799h7.78l.56-7.7799.72.62.3-13.52.08-3.4099c0-.2401-.07-.4701-.23-.6602Z"/>
    <polygon fill="#b1cc33" points="44.9 49.52 44.9 53.97 39.89 53.4099 40.45 45.63 41.17 46.25 44.9 49.52"/>
    <polygon fill="#b1cc33" points="32.11 53.4099 27.1 53.97 27.1 49.52 30.83 46.25 31.55 45.63 32.11 53.4099"/>
    <polygon fill="#9b9b9a" points="38.34 53.4099 36.68 56.72 35.32 56.72 33.66 53.4099 38.34 53.4099"/>
    <path fill="#92d3f5" d="M36.9704,23.4529l-.3518.4071c-.3423.396-.895.396-1.2373,0l-.3518-.4071c-.1875-.2169-.2809-.5207-.2545-.8268l.3518-4.0658c.0201-.2328.1083-.4505.2498-.6167h0c.3433-.4033.9032-.4033,1.2465,0h0c.1415.1662.2297.3839.2498.6167l.3518,4.0658c.0265.3062-.067.6099-.2545.8268Z"/>
  </g>
  <g id="line">
    <polyline fill="none" stroke="#000" stroke-linecap="round" stroke-linejoin="round" stroke-width="1.953" points="30.53 32.73 30.83 46.25 27.1 49.52 27.1 52.51 24.5566 51.7495 22.0225 50.9919 17.1 49.52 17.1 45.63 27.29 35.8421"/>
    <polygon fill="none" stroke="#000" stroke-linecap="round" stroke-linejoin="round" stroke-width="1.953" points="33.22 53.4099 33.22 58.4099 28.22 62.86 23.21 60.64 23.21 57.3 27.1 53.84 27.1 53.97 32.11 53.4099 33.22 53.4099"/>
    <polygon fill="none" stroke="#000" stroke-linecap="round" stroke-linejoin="round" stroke-width="1.953" points="48.79 57.3 48.79 60.64 43.78 62.86 38.78 58.4099 38.78 53.4099 39.89 53.4099 44.9 53.97 44.9 53.84 48.79 57.3"/>
    <polyline fill="none" stroke="#000" stroke-linecap="round" stroke-linejoin="round" stroke-width="1.953" points="44.6783 35.8117 54.9 45.63 54.9 49.52 49.9866 50.9891 48.0481 51.5687 44.9 52.51 44.9 49.52 41.17 46.25 41.47 32.73"/>
    <path fill="none" stroke="#000" stroke-linecap="round" stroke-linejoin="round" stroke-width="1.953" d="M41.32,28.6599l-2.09-2.51c-.29-.3499-.46-.7899-.49-1.24l-.31-5.96c-.13-2.58-.7-5.1299-1.66-7.54l-.47-1.1699c-.11-.27-.49-.27-.6,0l-.47,1.1699c-.96,2.4102-1.53,4.9601-1.66,7.54l-.31,5.96c-.03.4501-.2.8901-.49,1.24l-2.09,2.51c-.16.1901-.23.42-.23.6602l.08,3.4099.3,13.52.72-.62.56,7.7799h7.78l.56-7.7799.72.62.3-13.52.08-3.4099c0-.2401-.07-.4701-.23-.6602Z"/>
    <polygon fill="none" stroke="#000" stroke-linecap="round" stroke-linejoin="round" stroke-width="1.953" points="44.9 49.52 44.9 53.97 39.89 53.4099 40.45 45.63 41.17 46.25 44.9 49.52"/>
    <polygon fill="none" stroke="#000" stroke-linecap="round" stroke-linejoin="round" stroke-width="1.953" points="32.11 53.4099 27.1 53.97 27.1 49.52 30.83 46.25 31.55 45.63 32.11 53.4099"/>
    <polygon fill="none" stroke="#000" stroke-linecap="round" stroke-linejoin="round" stroke-width="1.953" points="38.34 53.4099 36.68 56.72 35.32 56.72 33.66 53.4099 38.34 53.4099"/>
  </g>
</svg>
