<svg id="emoji" viewBox="0 0 72 72" xmlns="http://www.w3.org/2000/svg">
  <g id="grid">
    <path fill="#b3b3b3" d="M68,4v64H4V4h64M72,0H0v72h72V0h0Z"/>
    <rect x="11" y="10.9583" rx="1.923" ry="1.923" width="50" height="50" fill="none" stroke="#00a5ff" stroke-miterlimit="10" stroke-width="0.1"/>
    <rect x="16" y="4" rx="2.2537" ry="2.2537" width="40" height="64" fill="none" stroke="#00a5ff" stroke-miterlimit="10" stroke-width="0.1"/>
    <rect x="16" y="4" rx="2.2537" ry="2.2537" width="40" height="64" transform="translate(72) rotate(90)" fill="none" stroke="#00a5ff" stroke-miterlimit="10" stroke-width="0.1"/>
    <circle cx="36" cy="36" r="29" fill="none" stroke="#00a5ff" stroke-miterlimit="10" stroke-width="0.1"/>
  </g>
  <g id="color">
    <path fill="#3f3f3f" d="M55.58,31.77c-1.73-.71-3.56-1.29-5.47-1.73-.14-.03-.28-.06-.42-.09-2.75-.6201-5.66-.95-8.69-.95h-.07c-.2,0-.39,0-.58.01-5.29.08-10.23,1.16-14.5,3-.05-1.67-.06-3.51.62-6.03.22-.82.54-1.59.94-2.32,4.16-1.71,8.76-2.66,13.59-2.66,4.53,0,8.85.83,12.8,2.34.94,1.31,1.48,2.92,1.48,4.64.09,1.56.18,2.77.3,3.79Z"/>
    <path fill="#d0cfce" d="M21.5124,14.5364s19.5493-8.641,25.4876-8.5364c5.9382.1046,10.03,3.7375,10.03,3.7375l-34.4967,6.5292-1.0209-1.7302Z"/>
    <path fill="#9b9b9a" d="M22.5124,15.5364s18.4876-8.5364,23.4876-8.5364c5.9392,0,9,3,9,3l-31.4667,7.2666-1.0209-1.7302Z"/>
    <g>
      <path fill="#d22f27" d="M32.9,53.53c.37.26.7599.51,1.18.73-.66-.26-1.31-.55-1.95-.87l.77.14Z"/>
      <path fill="#d22f27" d="M39.8,56.08c-2.09-.27-4.06-.89-5.7-1.81,1.85.76,3.76,1.3701,5.7,1.81Z"/>
      <path fill="#d22f27" d="M34.08,54.26c-.66-.26-1.31-.55-1.95-.87l.77.14c.37.26.7599.51,1.18.73Z"/>
    </g>
    <g id="color-2">
      <path fill="#fff" d="M61,63.6v2.2h-14.08c-1.3,0-9.92.2-19.47-1.01l-7.35-.75c-.06-.03-.13-.08-.19-.15-.86-.65-1.68-1.39-2.44-2.1801l.94-2.38,9.54,2.26c10.05,2.41,16.62,2.01,19.22,2.01h13.83Z"/>
      <path fill="#d22f27" d="M61,63.36v.24h-13.83c-2.6,0-9.17.4-19.22-2.01l-9.54-2.26.07-.18,1.42-3.59,8.55,2.82c5.55,1.62,15.07,3.02,18.97,3.02h13.24c.21.62.33,1.28.34,1.96Z"/>
      <path fill="#fff" d="M60.66,61.4h-13.24c-3.9,0-13.42-1.4-18.97-3.02l-8.55-2.82.03-.09,1.47-3.72,7.55,3.43c2.24,1.04,4.67,1.87,7.1,2.48,4.03,1.03,8.07,1.51,11.3,1.54h12.17c.4.55.74,1.15.99,1.78.06.14.11.28.15.42Z"/>
      <path fill="#d22f27" d="M59.52,59.2h-12.17c-3.23-.03-7.27-.51-11.3-1.54-2.43-.61-4.86-1.44-7.1-2.48l-7.55-3.43.04-.1c.03-.07.06-.14.08-.21.91-2.26,1.5-3.19,2.66-2.57.04.02.08.04.12.07.01,0,.01.01.02.01.01.0099.02.0099.03.02.04.02.08.05.12.08.86.6,1.7401,1.1,2.6,1.52l2.38,1.4c.87.51,1.76.99,2.66,1.42.01,0,.01.0099.02,0,.64.3199,1.29.61,1.95.87.01,0,.01.0099.02.0099,1.64.92,3.61,1.54,5.7,1.81.02,0,.05.01.07.01.01.01.03.01.04.01.02.01.03.01.05.01,2.61.59,5.28.89,7.96.89h9.5c.48.39.94.82,1.36,1.28.27.29.5099.6.74.92Z"/>
      <path fill="#d22f27" d="M34.08,54.26c-.66-.26-1.31-.55-1.95-.87l.77.14c.37.26.7599.51,1.18.73Z"/>
      <path fill="#fff" d="M57.42,57h-9.5c-2.68,0-5.35-.3-7.96-.89,1.97.26,4.08.23,6.19-.15h.02c1.77-.3,3.54-.83,5.26-1.6,1.52,0,3.96.98,5.99,2.64Z"/>
      <path fill="#d22f27" d="M46.92,65.8h14.08v2.2l-38.98.05v-.05l-.22-2.77c-.58-.37-1.15-.76-1.7-1.19l7.35.75c9.55,1.21,18.17,1.01,19.47,1.01Z"/>
    </g>
  </g>
  <g id="skin">
    <g id="skin-2">
      <path fill="#fcea2b" d="M51.32,36.48c0,7.6-4.56,13.6-10.4,13.6s-10.39-6-10.39-13.6v-1c.4-.8,4.06-2.9,6.6299-4.3,1.29-.68,2.54-1.41,3.77-2.18h.07c3.03,0,5.94.33,8.69.95,1.08,1.9,1.63,3.92,1.63,6.53Z"/>
    </g>
    <path fill="#fcea2b" d="M21,14l2,1v1c0,2.351,1.3041,2.0438,0,4l-1,4-5,3v4l4,16,1,2-3.9462,9.0804c-2.624-3.249-5.712-4.458-6.212-6.458-.543-2.169-1.8428-15.3724-.8418-19.6224.4003-2.535.2343-5.445,0-8l.4344-3.0407c.3512-2.4587,1.9589-4.5564,4.2417-5.5348l3.3239-1.4245"/>
  </g>
  <g id="hair">
    <g id="hair-2">
      <path fill="#a57939" d="M52.7788,23.1c-3.6672-1.37-7.6553-2.11-11.8283-2.11-4.6885,0-9.1533.95-13.1901,2.65,1.819-3.97,6.3713-6.66,11.6726-6.66,2.5777-.15,5.0873.83,6.9355,2.7.1751.19.4183.3.6712.3,2.9603.02,5.9603.02,5.7391,3.12Z"/>
      <path fill="#a57939" d="M57.63,40.18c-.38-.9-.77-1.7-1.15-2.6-.99-2.25-1.52-3.53-1.85-6.02-1.48-.6-3.04-1.1-4.65-1.49.76,1.48,1.32,3.06,1.69,4.71l-.1.3c-.47,2-1.15,3.94-2.02,5.8,0,0-2.96,3.31-3.74-.89-4.12-1.2-7.35-1.51-11.47-.31-.6801,4.2-2.61,1.2-2.61,1.2-.65-1.31-1.17-2.68-1.54-4.1v-1.1c-.07-.88,5.47-3.61,10.18-6.68h-.05c-4.96.08-9.61,1.08-13.66,2.81.11,1.89-.16,3.79-.81,5.57-.19.77-2.4125,2.9637-2.85,3.62-2,3-1.17,4.07-1,7l8.49,4.46c4.97,2.97,10.89,3.92,16.53,2.65l2.61-.58c.23-.17.46-.36.69-.55.38.02.75.07,1.11.15l.57-.13,3.96,1.06c.81-.58,2.04-1.06,3.04-4.06,1.16-.7,1.24-6.12-1.37-10.82ZM44.93,43.18l-.1,1.9c0,.7-1.54,2-3.85,2-2.32,0-3.85-1.3-3.85-2v-1.9c0-.56.43-1,.96-1l2.89,1.5,2.99-1.5c.4901-.04.92.36.96.88v.12Z"/>
    </g>
  </g>
  <g id="line">
    <g id="line-2">
      <path fill="none" stroke="#000" stroke-linecap="round" stroke-linejoin="round" stroke-width="2" d="M55.58,31.77c.43,3.67,1.2,4.62,3.06,9.01,1.65,3.87,1.13,8.34-1.38,11.7"/>
      <path fill="none" stroke="#000" stroke-linecap="round" stroke-linejoin="round" stroke-width="2" d="M27.41,23.66c2.27-4.14,7.23-6.68,12.62-6.68,5.35,0,7.92,3,7.92,3,3.05-1.98,6.05,1.02,5.85,3.36"/>
      <path fill="none" stroke="#000" stroke-linecap="round" stroke-linejoin="round" stroke-width="2" d="M25.85,32.01c.06,1.97.19,3.69-.67,5.97-.6394,1.6523-1.4451,3.2529-2.0452,4.8993"/>
      <path d="M47.8986,35.0912c0,1.6356-1.3054,2.9615-2.9159,2.9615s-2.9159-1.3259-2.9159-2.9615,1.3054-2.9615,2.9159-2.9615c1.6084.0047,2.9112,1.3279,2.9159,2.9615h0Z"/>
      <path d="M39.043,35.3824c0,1.1046-.8864,2-1.9799,2s-1.9799-.8954-1.9799-2,.8864-2,1.9799-2c1.0921.0032,1.9768.8968,1.9799,2h0Z"/>
      <path fill="none" stroke="#000" stroke-linejoin="round" stroke-width="2" d="M30.13,36.98v-1c0-1.36,5.47-4.1,10.22-6.97"/>
      <path fill="none" stroke="#000" stroke-linejoin="round" stroke-width="2" d="M50.11,30.04c1.2,2.04,1.8,4.19,1.8,6.94"/>
      <path fill="none" stroke="#000" stroke-linecap="round" stroke-linejoin="round" stroke-width="2" d="M30.0343,37.0824c-.198,3.1-.297,6.6,1.188,9.3.5807.9827,1.2789,1.8896,2.0789,2.7,2.0369,1.7465,4.6576,2.6408,7.3257,2.5"/>
      <path fill="none" stroke="#000" stroke-linecap="round" stroke-linejoin="round" stroke-width="2" d="M51.9125,37.0824c-.2776,1.4441-.9263,2.7891-1.8809,3.9,0,0-3.2396,3.2176-4.0315-.9824-4.2412-1.2-6.7588-1.2-11,0-.792,4.2-3.2827.9824-3.2827.9824-.7697-1.1859-1.3074-2.5097-1.5839-3.9"/>
      <path fill="none" stroke="#000" stroke-linecap="round" stroke-linejoin="round" stroke-width="2" d="M51.9125,37.4824c.3238,3.0586-.2258,6.1469-1.5839,8.9-.5152,1.0263-1.2209,1.943-2.0789,2.7-2.0052,1.8025-4.6492,2.7048-7.3257,2.5h-.297"/>
      <path fill="none" stroke="#000" stroke-linecap="round" stroke-linejoin="round" stroke-width="2" d="M38.0009,42.7801c2.1297.8,4.1579.8,6.0848,0"/>
    </g>
    <line x1="38.4112" x2="50.838" y1="30.3092" y2="39.0091" fill="none" stroke="#000" stroke-linecap="round" stroke-linejoin="round" stroke-width="1.9899"/>
    <path fill="none" stroke="#000" stroke-linecap="round" stroke-linejoin="round" stroke-width="1.9899" d="M55.58,31.77c-1.73-.71-3.56-1.29-5.47-1.73-.14-.03-.28-.06-.42-.09-2.75-.6201-5.66-.95-8.69-.95h-.07c-.2,0-.39,0-.58.01-5.29.08-10.23,1.16-14.5,3-.05-1.67-.06-3.51.62-6.03.22-.82.54-1.59.94-2.32,4.16-1.71,8.76-2.66,13.59-2.66,4.53,0,8.85.83,12.8,2.34.94,1.31,1.48,2.92,1.48,4.64.09,1.56.18,2.77.3,3.79Z"/>
    <g id="line-3">
      <path fill="none" stroke="#000" stroke-linecap="round" stroke-linejoin="round" stroke-width="2" d="M21.9993,67.0354c.1905-.9837-.1257-1.9974-.8419-2.6982-3.1581-2.4458-4.1581-3.3018-4.1581-3.3018l5-12"/>
      <path fill="none" stroke="#000" stroke-linecap="round" stroke-linejoin="round" stroke-width="2" d="M60.9993,67.0354s.0908-2.25.0908-3c0-7-9.0908-10-9.0908-10-7,2-11,2-16,1-3.2754-.6553-10.0273-4.59-15-8,0,0-3.9093-15.5-3.9093-19.5005,0-.5825,4.91-1.5349,4.91-5.5349"/>
      <path fill="none" stroke="#000" stroke-linecap="round" stroke-linejoin="round" stroke-width="2" d="M18.1536,58.2664c-5-4-6.5879-5.12-7.1543-8.2314-2-11,1-21.6161,1-25.035l.6104-6.4346c.2444-.98.9551-1.7772,1.9008-2.1318l4.5699-1.7137c1.224-.459,2.5839-.3876,3.7532.197"/>
    </g>
    <path fill="none" stroke="#000" stroke-linecap="round" stroke-linejoin="round" stroke-width="1.7268" d="M8,21l4-1c-1.4666-4.0602.1568-6.836,3.6771-8.1469,1.9664-.7323,4.779-.4426,6.4086.9798.5859.5114.9546,1.2339,1.1256,1.9926.0024.0105.0047.021.0071.0315,1.419,6.3607-2.6927,8.8036-5.2184,9.143-2.7772.3732-4.8022-3.7827-5-4"/>
    <line x1="24" x2="57" y1="17" y2="10" fill="none" stroke="#000" stroke-linecap="round" stroke-linejoin="round" stroke-width="1.8404"/>
  </g>
</svg>
